<?xml version="1.0" standalone="no"?>
<!DOCTYPE svg PUBLIC "-//W3C//DTD SVG 20010904//EN"
 "http://www.w3.org/TR/2001/REC-SVG-20010904/DTD/svg10.dtd">
<svg version="1.0" xmlns="http://www.w3.org/2000/svg"
 width="16.000000pt" height="16.000000pt" viewBox="0 0 16.000000 16.000000"
 preserveAspectRatio="xMidYMid meet">
<metadata>
Created by potrace 1.11, written by Peter Selinger 2001-2013
</metadata>
<g transform="translate(0.000000,16.000000) scale(0.006154,-0.006154)"
fill="#000000" stroke="none">
<path d="M263 1842 l-53 -3 0 -510 0 -509 78 0 77 0 -1 327 0 327 55 -115 c31
-63 102 -210 158 -327 l103 -212 83 0 82 0 0 508 0 507 -60 5 c-105 9 -95 43
-96 -334 l0 -331 -29 60 c-15 33 -68 143 -117 245 -49 102 -109 226 -132 275
-47 99 -36 93 -148 87z"/>
<path d="M1057 1842 c-13 -3 -17 -15 -18 -50 -2 -178 0 -964 2 -967 5 -4 63
-7 119 -6 l45 1 -1 203 c0 111 1 207 4 214 10 31 126 0 152 -40 21 -33 103
-184 155 -286 l47 -91 98 0 99 0 -58 118 c-103 210 -122 244 -167 292 l-44 47
27 6 c74 15 155 108 168 194 11 72 7 145 -10 194 -38 108 -98 156 -208 165
-71 6 -385 11 -410 6z m429 -203 c51 -52 47 -151 -8 -192 -23 -17 -44 -20
-150 -21 l-123 -1 -1 115 c0 63 2 119 4 123 2 5 60 7 128 5 118 -3 125 -4 150
-29z"/>
<path d="M1908 1842 l-37 -3 0 -510 0 -509 57 0 c338 -2 495 0 501 5 3 4 7 42
7 86 l1 79 -198 0 c-152 0 -199 3 -199 13 -1 6 -1 197 -1 424 l0 411 -47 4
c-26 1 -64 2 -84 0z"/>
</g>
</svg>
