<svg id="Layer_1" data-name="Layer 1" xmlns="http://www.w3.org/2000/svg" viewBox="0 0 225.93 150.82"><defs><style>.cls-1{fill:#fff;}</style></defs><title>NRL_logo_white</title><path class="cls-1" d="M132,83.94H118.5l-2.21,4.87H111L122.6,63h5.31l11.58,25.82h-5.31Zm-6.75-15.53-4.8,11H130Z"/><path class="cls-1" d="M151.79,88.92h-5.05L136,63h5.46l7.78,20.11L157.07,63h5.46Z"/><path class="cls-1" d="M180.18,83.94h-13.5l-2.21,4.87h-5.28L170.77,63h5.31l11.58,25.82h-5.31Zm-6.75-15.53-4.8,11h9.59Z"/><path class="cls-1" d="M194.05,63V84.31h13.28v4.5H189.18V63h4.87Z"/><path class="cls-1" d="M104.63,62.95h4.87V88.81h-3v0L92.9,71.4V88.81H88V63H92l12.65,16v-16Z"/><path class="cls-1" d="M41.15,62.7V77.33c0,7.55-4.63,11.42-11.06,11.42C24,88.75,18.75,85,18.75,77.33V62.7h4.78V77.33c0,4.6,2.63,7,6.6,7s6.24-2.66,6.24-7V62.7h4.78Z"/><path class="cls-1" d="M48.3,85.9c0,3.47-5.25,3.47-5.25,0S48.3,82.44,48.3,85.9Z"/><path class="cls-1" d="M68.34,68.83C67.46,67.37,65.05,66,62.28,66,58.7,66,57,67.48,57,69.37c0,2.23,2.63,2.85,5.69,3.21C68,73.24,73,74.63,73,80.72c0,5.69-5,8.14-10.73,8.14-5.22,0-9.23-1.61-11.13-6.28l4-2.08c1.13,2.81,4.09,4.05,7.19,4.05s5.88-1.06,5.88-3.83c0-2.41-2.52-3.39-5.91-3.76-5.22-.62-10-2-10-7.74,0-5.25,5.18-7.41,9.89-7.44,4,0,8.1,1.13,10,5.07Z"/><path class="cls-1" d="M80.82,85.9c0,3.47-5.25,3.47-5.25,0S80.82,82.44,80.82,85.9Z"/><path class="cls-1" d="M225.93,0H0V122.08H23.33v-8.14h4.42l7.1,8.14H40.3v-0.31l-7.37-8.31c4.63-.94,6.16-4.31,6.16-7.65,0-4.21-3-8-8.77-8.07-3.86,0-7.72,0-11.58,0v20.87H3.5V3.5H222.4V118.62H206.91l0-20.85h-4.56V108h-12V97.77h-4.59v24.3h4.59v-9.8h12v9.8h23.62V0ZM23.33,102h7a3.9,3.9,0,1,1,0,7.79h-7V102Z"/><path class="cls-1" d="M43,122.08H61.24v-4.52H47.57v-5.5H60.75v-4.28H47.57v-5.6H61.24V97.74H43v24.35Z"/><path class="cls-1" d="M75,107.2c-2.92-.35-5.43-0.94-5.43-3.06,0-1.81,1.63-3.23,5-3.23a7,7,0,0,1,5.77,2.71L84,101.74C82.15,98,78.22,96.9,74.43,96.9,69.94,96.94,65,99,65,104c0,5.46,4.59,6.78,9.56,7.37,3.23,0.35,5.63,1.29,5.63,3.58,0,2.64-2.71,3.65-5.6,3.65s-5.77-1.18-6.85-3.86l-3.83,2c1.81,4.45,5.63,6,10.61,6,5.43,0,10.23-2.33,10.23-7.76C84.76,109.14,80,107.82,75,107.2Z"/><path class="cls-1" d="M88.77,122.08H107v-4.52H93.33v-5.5h13.18v-4.28H93.33v-5.6H107V97.74H88.77v24.35Z"/><path class="cls-1" d="M120,97.74l-10.92,24.35h5l2.09-4.59h12.73l2.05,4.59h5L125,97.74h-5Zm-2,15.48,4.52-10.36L127,113.21h-9Z"/><path class="cls-1" d="M158.66,105.8c0-4.21-3-8-8.77-8.07-3.86,0-7.72,0-11.58,0v24.38h4.59v-8.14h4.42l7.1,8.14h5.46v-0.31l-7.37-8.31C157.13,112.52,158.66,109.14,158.66,105.8Zm-15.75,4V102h7a3.9,3.9,0,1,1,0,7.79h-7Z"/><path class="cls-1" d="M174.22,118.33c-6,0-8.35-4.21-8.38-8.24s2.5-8.45,8.38-8.45a8.37,8.37,0,0,1,5.88,2.3l3.06-3a12.56,12.56,0,0,0-8.94-3.72c-8.8,0-12.94,6.47-12.9,12.83s3.86,12.56,12.9,12.56a12.83,12.83,0,0,0,9.25-3.62l-3.13-3.16A9,9,0,0,1,174.22,118.33Z"/><path class="cls-1" d="M20.76,130.88v17.75H31.65v1.85H18.8v-19.6h2Z"/><path class="cls-1" d="M48.17,145.94H36.81l-2,4.54H32.72l8.79-19.6h2l8.79,19.6H50.19Zm-10.58-1.79h9.8L42.49,133Z"/><path class="cls-1" d="M63.91,130.88c3.44,0,6.55,1.48,6.55,5.38a4.36,4.36,0,0,1-3.08,4.17A5,5,0,0,1,71,145.19c0,4.06-3.61,5.29-7.14,5.29H55.57v-19.6h8.34Zm-6.38,8.68H64c2.35,0,4.45-1,4.45-3.33,0-2.6-2.18-3.53-4.59-3.53H57.53v6.86Zm0,9.07h6.38c2.24,0,5.18-.7,5.18-3.47s-2.72-3.81-5-3.81H57.53v7.28Z"/><path class="cls-1" d="M93.45,140.73c0,5.12-3.3,10.16-9.91,10.08-6.66.08-9.94-5-9.94-10.11,0-5.49,3.58-10.22,9.94-10.14C90.17,130.49,93.45,135.55,93.45,140.73ZM83.54,149c5.32,0.08,8-4,8-8.23s-2.6-8.4-8-8.32c-5.26-.08-8.06,3.75-8,8.32C75.64,145,78.16,149.05,83.54,149Z"/><path class="cls-1" d="M112.71,150.48h-2.55l-6.5-7.22H98.6v7.22h-2v-19.6h8.79c4.34,0,6.5,2.91,6.5,6.22,0,3.05-1.74,5.8-5.91,6ZM98.6,132.73v8.68h6.72c3.14,0,4.65-1.85,4.65-4.31s-1.51-4.37-4.54-4.37H98.6Z"/><path class="cls-1" d="M129.79,145.94H118.42l-2,4.54h-2.07l8.79-19.6h2l8.79,19.6h-2.07Zm-10.58-1.79H129L124.11,133Z"/><path class="cls-1" d="M140,132.73h-6.92v-1.85h15.79v1.85h-6.92v17.75h-2V132.73Z"/><path class="cls-1" d="M169.78,140.73c0,5.12-3.3,10.16-9.91,10.08-6.66.08-9.94-5-9.94-10.11,0-5.49,3.58-10.22,9.94-10.14C166.5,130.49,169.78,135.55,169.78,140.73ZM159.86,149c5.32,0.08,8-4,8-8.23s-2.6-8.4-8-8.32c-5.26-.08-8.06,3.75-8,8.32C152,145,154.49,149.05,159.86,149Z"/><path class="cls-1" d="M189.46,150.48h-2.55l-6.5-7.22h-5.07v7.22h-2v-19.6h8.79c4.34,0,6.5,2.91,6.5,6.22,0,3.05-1.74,5.8-5.91,6Zm-14.11-17.75v8.68h6.72c3.14,0,4.65-1.85,4.65-4.31s-1.51-4.37-4.54-4.37h-6.83Z"/><path class="cls-1" d="M198.64,140.68l6.33-9.8h2.3v0.06l-7.64,11.65v7.9h-2v-7.9l-7.53-11.65v-0.06h2.27Z"/></svg>